<?xml version="1.0" encoding="UTF-8"?>
<svg id="Layer_1" data-name="Layer 1" xmlns="http://www.w3.org/2000/svg" viewBox="0 0 332.84 112.74">
  <defs>
    <style>
      .cls-1 {
        fill: #fff;
        stroke-width: 0px;
      }
    </style>
  </defs>
  <path class="cls-1" d="M332.77,6.37c-.12-.49-.35-.96-.67-1.41-.33-.45-.68-.86-1.06-1.25-.38-.38-.7-.68-.95-.9-1.82-1.57-4.02-2.49-6.59-2.74-2.58-.25-4.94.11-7.11,1.09-1.94.85-3.63,1.88-5.07,3.1-1.44,1.22-2.78,2.55-4.03,3.99l-1.38,1.6c-1.07,1.37-2.08,2.89-3.06,4.53-7.33,10.11-16.65,24.68-24.05,36.58l-.07-.02c-4.6,7.3-9,14.49-12.45,20.17-.11.22-.22.43-.33.64l-11.3,17.63c-2.16,2.83-4.42,5.59-6.8,8.3-.42.42-1.18,1.14-2.3,2.18-1.12,1.04-2.32,2.07-3.61,3.11-1.29,1.04-2.55,1.95-3.79,2.74-1.24.79-2.16,1.18-2.74,1.18-.5,0-.87-.21-1.12-.62-1.41-1.24-2.32-2.84-2.74-4.79-.42-1.95-.62-3.79-.62-5.53,0-4.15.68-8.46,2.05-12.93,1.37-4.48,2.84-8.58,4.42-12.31,1.41-3.4,2.88-6.73,4.42-10.01,1.53-3.27,3.05-6.61,4.54-10.01.33-.75.64-1.49.93-2.24.29-.75.52-1.53.68-2.36.08-.25.12-.62.12-1.12,0-.83-.35-1.49-1.06-1.99-.71-.5-1.43-.83-2.18-1-.66-.17-1.33-.29-1.99-.37-.66-.08-1.33-.12-1.99-.12-3.32,0-6.09,1.24-8.33,3.73-1.24,1.41-2.42,2.84-3.54,4.29-1.12,1.45-2.26,2.92-3.42,4.42-3.48,4.97-6.9,9.97-10.26,14.99-3.36,5.02-6.65,10.14-9.89,15.36-1.66,2.65-3.34,5.2-5.04,7.65-1.7,2.45-3.5,4.87-5.41,7.28-.25.25-.46.5-.62.75-.17.25-.42.46-.75.62-.08-.08-.12-.21-.12-.37s.08-.33.25-.5l6.34-12.81c2.4-4.73,4.85-9.35,7.34-13.87,2.49-4.52,4.93-9.1,7.34-13.74,1-1.91,1.97-3.81,2.92-5.72.95-1.91,1.84-3.85,2.67-5.85.33-.75.62-1.51.87-2.3.25-.79.46-1.64.62-2.55v-.75c0-2.07-1.04-3.4-3.11-3.98-.66-.25-1.33-.41-1.99-.5-.66-.08-1.33-.12-1.99-.12-.91,0-1.89.1-2.92.31-1.04.21-1.93.6-2.67,1.18-.41.41-.61.81-.62,1.21-.02,0-.03,0-.05,0-3.66,15.56-25.27,34.76-29,38-.23.2-1.43.99-2.24,1.51-.6.33-1.19.67-1.79.99-1.16.62-2.41,1.1-3.73,1.43-1.41.42-2.7.62-3.86.62-.66,0-1.2-.04-1.62-.12,0-.25.04-.46.12-.62.08-.17.17-.33.25-.5.91-1.66,1.82-3.61,2.74-5.85.91-2.24,1.78-4.58,2.61-7.03.83-2.44,1.49-4.87,1.99-7.28.5-2.4.75-4.56.75-6.47,0-3.15-.71-5.55-2.11-7.21-1.41-1.66-3.81-2.49-7.21-2.49-2.74,0-5.06.73-6.96,2.18-1.91,1.45-3.46,3.3-4.66,5.53-1.2,2.24-2.07,4.64-2.61,7.21-.54,2.57-.81,4.97-.81,7.21,0,5.64,1.87,10.57,5.6,14.8.33.5.5.79.5.87,0,.17-.12.46-.37.87-.58.99-1.18,1.99-1.8,2.98-.62,1-1.31,1.95-2.05,2.86-.33.5-1,1.29-1.99,2.36-1,1.08-2.05,2.16-3.17,3.23-1.12,1.08-2.22,2.03-3.3,2.86-1.08.83-1.95,1.24-2.61,1.24-.25,0-.5-.27-.75-.81-.25-.54-.44-1.16-.56-1.87-.12-.7-.23-1.37-.31-1.99-.08-.62-.12-1.06-.12-1.31v-.87c.41-3.73,1.33-7.28,2.74-10.63,1.41-3.36,2.98-6.61,4.73-9.76.41-.83.81-1.62,1.18-2.36.37-.75.73-1.53,1.06-2.36.33-.66.5-1.33.5-1.99s-.25-1.18-.75-1.55-1.08-.68-1.74-.93c-.66-.25-1.35-.41-2.05-.5-.71-.08-1.31-.12-1.8-.12-1.66,0-3.15.23-4.48.68-1.33.46-2.36,1.51-3.11,3.17-.33.66-.66,1.27-.99,1.8-.33.54-.71,1.1-1.12,1.68-1.58,2.32-3.3,4.75-5.16,7.28-1.87,2.53-3.77,5.04-5.72,7.52-1.95,2.49-3.94,4.89-5.97,7.21-2.03,2.32-4.08,4.48-6.16,6.47-.17.17-.35.37-.56.62-.21.25-.52.37-.93.37.08-2.24.46-4.52,1.12-6.84.55-1.92,1.22-3.85,1.97-5.77,13.78-9.26,26.25-23.79,22.08-30.43-.05-.08-.1-.16-.17-.25-.17-.24-.35-.46-.56-.68-.16-.08-.31-.13-.45-.16-.45-.27-.9-.48-1.36-.58-.58-.12-1.2-.27-1.87-.44-.42-.08-.83-.12-1.24-.12h-1.24c-3.48,0-6.55,1.2-9.2,3.61-2.41,2.24-4.91,5.04-7.52,8.39s-5,6.92-7.15,10.7c-2.16,3.77-3.92,7.57-5.29,11.38-.55,1.54-.99,3.02-1.32,4.45-2.56.7-5.18.86-7.86.27-1.89-.47-3.58-1.23-5.08-2.23,2.89-3.97,5.59-8.13,8.1-12.51,3.4-5.93,6.2-11.92,8.4-17.97,2.2-6.05,3.42-11.52,3.67-16.42v-2.11c0-1.91-.15-3.79-.44-5.66-.29-1.87-.89-3.75-1.8-5.66-1-2.15-2.55-3.98-4.66-5.47-2.11-1.49-4.37-2.24-6.78-2.24-.33,0-.77.02-1.31.06-.54.04-1.08.12-1.62.25-.54.12-1.02.33-1.43.62,0,0-10.55,4.83-13.55,24.83-2.02,13.49-1.31,26.98,3.97,36.17-3.21,4.58-6.68,9.02-10.44,13.31-.42.42-1.18,1.14-2.3,2.18-1.12,1.04-2.32,2.07-3.61,3.11-1.29,1.04-2.55,1.95-3.79,2.74-1.24.79-2.16,1.18-2.74,1.18-.5,0-.87-.21-1.12-.62-1.41-1.24-2.32-2.84-2.74-4.79-.42-1.95-.62-3.79-.62-5.53,0-4.15.68-8.46,2.05-12.93,1.37-4.48,2.84-8.58,4.42-12.31,1.41-3.4,2.88-6.73,4.42-10.01,1.53-3.27,3.05-6.61,4.54-10.01.33-.75.64-1.49.93-2.24.29-.75.52-1.53.68-2.36.08-.25.12-.62.12-1.12,0-.83-.35-1.49-1.06-1.99-.71-.5-1.43-.83-2.18-1-.66-.17-1.33-.29-1.99-.37-.66-.08-1.33-.12-1.99-.12-3.32,0-6.09,1.24-8.33,3.73-1.24,1.41-2.42,2.84-3.54,4.29-1.12,1.45-2.26,2.92-3.42,4.42-3.48,4.97-6.9,9.97-10.26,14.99-3.36,5.02-6.65,10.14-9.89,15.36-1.66,2.65-3.34,5.2-5.04,7.65-1.7,2.45-3.5,4.87-5.41,7.28-.25.25-.46.5-.62.75-.17.25-.42.46-.75.62-.08-.08-.12-.21-.12-.37s.08-.33.25-.5l6.34-12.81c2.4-4.73,4.85-9.35,7.34-13.87,2.49-4.52,4.93-9.1,7.34-13.74,1-1.91,1.97-3.81,2.92-5.72.95-1.91,1.84-3.85,2.67-5.85.33-.75.62-1.51.87-2.3.25-.79.46-1.64.62-2.55v-.75c0-2.07-1.04-3.4-3.11-3.98-.66-.25-1.33-.41-1.99-.5-.66-.08-1.33-.12-1.99-.12-.91,0-1.89.1-2.92.31-1.04.21-1.93.6-2.67,1.18-.42.42-.62.83-.62,1.24,0,.25.04.42.12.5.25.5.37.95.37,1.37,0,.66-.25,1.58-.75,2.74-.5,1.16-.87,2.07-1.12,2.74-1.16,2.65-2.38,5.22-3.67,7.71-1.29,2.49-2.63,5.02-4.04,7.59-2.32,4.31-4.62,8.6-6.9,12.87-2.28,4.27-4.5,8.6-6.65,13-.99,2.16-1.93,4.33-2.8,6.53-.87,2.2-1.31,4.5-1.31,6.9,0,1.74.31,3.38.93,4.91.62,1.54,1.97,2.38,4.04,2.55h.87c2.24,0,4.1-.75,5.6-2.24,1.16-1.08,2.22-2.22,3.17-3.42.95-1.2,1.89-2.38,2.8-3.54.5-.66,1.43-1.91,2.8-3.73,1.37-1.82,2.96-3.9,4.79-6.22,1.82-2.32,3.73-4.77,5.72-7.34,1.99-2.57,3.86-4.93,5.6-7.09,1.74-2.15,3.25-3.98,4.54-5.47,1.28-1.49,2.09-2.36,2.42-2.61,0,.42-.06.75-.19.99-.12.25-.23.5-.31.75-.83,1.91-1.64,3.96-2.42,6.16-.79,2.2-1.49,4.42-2.11,6.65-.62,2.24-1.12,4.48-1.49,6.72-.37,2.24-.56,4.44-.56,6.59v1.62c.17,5.31,1.8,9.18,4.91,11.63,3.11,2.44,7.15,3.67,12.13,3.67,5.55,0,10.65-1.82,15.3-5.47,4.06-3.23,8.15-7.44,12.25-12.62.76-.95,1.49-1.93,2.22-2.91,1.37.98,2.87,1.82,4.52,2.48,2.43.97,5.54.86,9.01-.04-.25,1.48-.39,2.9-.39,4.26v.87c.17,2.65,1.14,4.6,2.92,5.85,1.78,1.24,3.88,1.87,6.28,1.87,2.65,0,4.7-.52,6.16-1.55,1.45-1.04,2.88-2.63,4.29-4.79l5.22-7.09c.17-.25.58-.81,1.24-1.68.66-.87,1.37-1.78,2.11-2.74.75-.95,1.43-1.84,2.05-2.67.62-.83,1.01-1.28,1.18-1.37.08.08.12.21.12.37v.25l-.25.5v.25c-.75,2.32-1.12,4.69-1.12,7.09l.12.75v.5c.33,4.06,1.78,6.95,4.35,8.64,2.57,1.7,5.68,2.55,9.33,2.55,3.31,0,6.3-.83,8.95-2.49,2.65-1.66,4.93-3.77,6.84-6.34,1.33-1.57,2.57-3.17,3.73-4.79,1.16-1.62,2.32-3.25,3.48-4.91.41-.75.99-1.12,1.74-1.12h.37c.5.08,1,.12,1.49.12h1.49c3.73,0,7.13-.77,10.2-2.3,3.07-1.53,5.93-3.5,8.58-5.91,2.26-2.01,7.42-8.72,12.73-15.96-.1.18-.19.36-.29.54-2.32,4.31-4.62,8.6-6.9,12.87-2.28,4.27-4.5,8.6-6.65,13-.99,2.16-1.93,4.33-2.8,6.53-.87,2.2-1.31,4.5-1.31,6.9,0,1.74.31,3.38.93,4.91.62,1.54,1.97,2.38,4.04,2.55h.87c2.24,0,4.1-.75,5.6-2.24,1.16-1.08,2.22-2.22,3.17-3.42.95-1.2,1.89-2.38,2.8-3.54.5-.66,1.43-1.91,2.8-3.73,1.37-1.82,2.96-3.9,4.79-6.22,1.82-2.32,3.73-4.77,5.72-7.34,1.99-2.57,3.86-4.93,5.6-7.09,1.74-2.15,3.25-3.98,4.54-5.47,1.28-1.49,2.09-2.36,2.42-2.61,0,.42-.06.75-.19.99-.12.25-.23.5-.31.75-.83,1.91-1.64,3.96-2.42,6.16-.79,2.2-1.49,4.42-2.11,6.65-.62,2.24-1.12,4.48-1.49,6.72-.37,2.24-.56,4.44-.56,6.59v1.62c.17,5.31,1.8,9.18,4.91,11.63,3.11,2.44,7.15,3.67,12.13,3.67,5.55,0,10.65-1.82,15.3-5.47,4.06-3.23,8.15-7.44,12.25-12.62,4.1-5.18,7.51-10.5,10.91-16.43.92-1.61,1.93-3.42,2.99-5.31,11.47-18.71,26.28-39.59,34.43-50.83l.21.09c1.22-2.1,2.62-4.08,4.22-5.93.92-1.07,1.95-2.12,3.08-3.18,1.13-1.05,2.37-1.98,3.72-2.78,1.35-.8,2.75-1.43,4.18-1.89,1.44-.46,2.9-.59,4.38-.4.36.09.69.16.98.19.3.04.58-.1.85-.41l.08-.09c.21-.37.25-.8.13-1.29ZM88.11,27.21c.56.56,1.06,1.19,1.49,1.89.79,1.29,1.43,2.67,1.93,4.17.5,1.49.83,3.01.99,4.54.17,1.54.25,3.01.25,4.42,0,3.4-.44,6.74-1.31,10.01-.87,3.28-1.89,6.49-3.05,9.64-2.49,6.8-5.66,13.12-9.51,18.97-.46.69-.94,1.37-1.41,2.06-8.33-16.69-1.3-48.37,10.61-55.68ZM119.39,72.81c.5-.75,1.24-1.87,2.24-3.36,1-1.49,2.11-2.98,3.36-4.48s2.49-2.82,3.73-3.98c1.16-1.08,2.17-1.71,3.04-1.93.11.78,0,1.99-1.25,3.14-4.17,3.82-8.97,10.02-14.28,15.85,1.07-1.86,2.12-3.62,3.16-5.25ZM164.1,65.6c-.95,2.98-2.05,5.93-3.3,8.83-.08.17-.15.31-.19.44-.04.12-.15.23-.31.31-.83-1.91-1.24-4.19-1.24-6.84,0-2.9.5-5.86,1.49-8.89.99-3.03,2.4-5.7,4.23-8.02.5,1.58.75,3.23.75,4.98,0,3.15-.48,6.22-1.43,9.2Z"/>
</svg>